# xmcd
#
# Track frame offsets: 
#        183
#        17043
#        30990
#        45855
#        60770
#        78433
#        99003
#        114605
#        135930
#        161148
#        179788
#        193900
#        211028
#        223658
#        239600
#        256880
#        269805
#        284403
#        298680
#
# Disc length: 4219 seconds
#
# Revision: 4
# Processed by: cddbd v1.5.2PL0 Copyright (c) Steve Scherf et al.
# Submitted via: ExactAudioCopy v1.0b3
#
DISCID=10107913
DTITLE=Crowded House - Recurring Dream - The Very Best Of Crowded Hous
DTITLE=e
DYEAR=1996
DGENRE=Pop
TTITLE0=Weather With You
TTITLE1=World Where You Live
TTITLE2=Fall At Your Feet
TTITLE3=Locked Out
TTITLE4=Don't Dream It's Over
TTITLE5=Into Temptaion
TTITLE6=Pineapple Head
TTITLE7=When You Come
TTITLE8=Private Universe
TTITLE9=Not The Girl You Think You Are
TTITLE10=Instinct
TTITLE11=I Feel Possessed
TTITLE12=Four Seasons In One Day
TTITLE13=It's Only Natural
TTITLE14=Distant Sun
TTITLE15=Something So Strong
TTITLE16=Mean To Me
TTITLE17=Better Be Home Soon
TTITLE18=Everything Is Good For You
EXTD=
EXTT0=
EXTT1=
EXTT2=
EXTT3=
EXTT4=
EXTT5=
EXTT6=
EXTT7=
EXTT8=
EXTT9=
EXTT10=
EXTT11=
EXTT12=
EXTT13=
EXTT14=
EXTT15=
EXTT16=
EXTT17=
EXTT18=
PLAYORDER=
